<svg id="visual" viewBox="0 0 2000 600" width="2000" height="600" xmlns="http://www.w3.org/2000/svg" xmlns:xlink="http://www.w3.org/1999/xlink" version="1.1"><rect x="0" y="0" width="2000" height="600" fill="#E8E3FD"></rect><defs><linearGradient id="grad1_0" x1="70%" y1="0%" x2="100%" y2="100%"><stop offset="-16.66666666666667%" stop-color="#e8e3fd" stop-opacity="1"></stop><stop offset="116.66666666666666%" stop-color="#e8e3fd" stop-opacity="1"></stop></linearGradient></defs><defs><linearGradient id="grad2_0" x1="0%" y1="0%" x2="30%" y2="100%"><stop offset="-16.66666666666667%" stop-color="#e8e3fd" stop-opacity="1"></stop><stop offset="116.66666666666666%" stop-color="#e8e3fd" stop-opacity="1"></stop></linearGradient></defs><g transform="translate(2000, 0)"><path d="M0 360C-42.8 364 -85.6 368 -111.2 342.4C-136.9 316.7 -145.3 261.4 -169.3 233C-193.3 204.6 -232.9 203.2 -253.2 184C-273.5 164.7 -274.5 127.6 -289.1 93.9C-303.7 60.3 -331.9 30.1 -360 0L0 0Z" fill="#dfd8fd"></path></g><g transform="translate(0, 600)"><path d="M0 -360C30.9 -331.3 61.8 -302.7 94.6 -291C127.3 -279.4 161.9 -284.8 201 -276.7C240.1 -268.6 283.7 -247 291.2 -211.6C298.8 -176.3 270.3 -127.2 275.8 -89.6C281.3 -52.1 320.6 -26 360 0L0 0Z" fill="#dfd8fd"></path></g></svg>