<svg id="visual" viewBox="0 0 540 960" width="540" height="960" xmlns="http://www.w3.org/2000/svg" xmlns:xlink="http://www.w3.org/1999/xlink" version="1.1"><rect x="0" y="0" width="540" height="960" fill="#E8E3FD"></rect><defs><linearGradient id="grad1_0" x1="0%" y1="0%" x2="100%" y2="100%"><stop offset="30%" stop-color="#e8e3fd" stop-opacity="1"></stop><stop offset="70%" stop-color="#e8e3fd" stop-opacity="1"></stop></linearGradient></defs><defs><linearGradient id="grad2_0" x1="0%" y1="0%" x2="100%" y2="100%"><stop offset="30%" stop-color="#e8e3fd" stop-opacity="1"></stop><stop offset="70%" stop-color="#e8e3fd" stop-opacity="1"></stop></linearGradient></defs><g transform="translate(540, 0)"><path d="M0 297C-30.1 264 -60.3 231.1 -87.6 211.6C-115 192.1 -139.6 186.1 -173.9 173.9C-208.3 161.8 -252.3 143.7 -274.4 113.7C-296.5 83.7 -296.8 41.8 -297 0L0 0Z" fill="#e1dcff"></path></g><g transform="translate(0, 960)"><path d="M0 -297C43.4 -297.7 86.8 -298.4 113.7 -274.4C140.5 -250.4 150.7 -201.6 170.4 -170.4C190.1 -139.3 219.4 -125.7 242.1 -100.3C264.7 -74.8 280.9 -37.4 297 0L0 0Z" fill="#e1dcff"></path></g></svg>