<svg id="visual" viewBox="0 0 960 540" width="960" height="540" xmlns="http://www.w3.org/2000/svg" xmlns:xlink="http://www.w3.org/1999/xlink" version="1.1"><rect x="0" y="0" width="960" height="540" fill="#E8E3FD"></rect><defs><linearGradient id="grad1_0" x1="43.8%" y1="0%" x2="100%" y2="100%"><stop offset="14.444444444444446%" stop-color="#e8e3fd" stop-opacity="1"></stop><stop offset="85.55555555555554%" stop-color="#e8e3fd" stop-opacity="1"></stop></linearGradient></defs><defs><linearGradient id="grad2_0" x1="0%" y1="0%" x2="56.3%" y2="100%"><stop offset="14.444444444444446%" stop-color="#e8e3fd" stop-opacity="1"></stop><stop offset="85.55555555555554%" stop-color="#e8e3fd" stop-opacity="1"></stop></linearGradient></defs><g transform="translate(960, 0)"><path d="M0 297C-25.5 260.8 -51.1 224.5 -89.2 215.3C-127.3 206 -177.9 223.8 -210 210C-242.1 196.2 -255.6 150.9 -267 110.6C-278.4 70.3 -287.7 35.2 -297 0L0 0Z" fill="#dfdbff"></path></g><g transform="translate(0, 540)"><path d="M0 -297C33.6 -275.4 67.3 -253.7 98 -236.5C128.6 -219.3 156.4 -206.4 188.1 -188.1C219.8 -169.8 255.6 -145.9 274.4 -113.7C293.2 -81.4 295.1 -40.7 297 0L0 0Z" fill="#dfdbff"></path></g></svg>